<svg xmlns="http://www.w3.org/2000/svg" viewBox="0 0 48 48"><defs><style>.cls-1{fill:#f6f6f6;}.cls-2{fill:#e9ded6;}</style></defs><title>5</title><g id="BG"><circle class="cls-1" cx="24" cy="24" r="24"/></g><g id="User"><path class="cls-2" d="M37,38H36v-.62A10.69,10.69,0,0,0,25.31,26.66h-.62A10.69,10.69,0,0,0,14,37.34V38H13v-.62A11.69,11.69,0,0,1,24.69,25.66h.62A11.69,11.69,0,0,1,37,37.34Z" transform="translate(-1 -1)"/><path class="cls-2" d="M25,24.8a6.63,6.63,0,1,1,6.63-6.63A6.64,6.64,0,0,1,25,24.8Zm0-12.26a5.63,5.63,0,1,0,5.63,5.63A5.64,5.64,0,0,0,25,12.54Z" transform="translate(-1 -1)"/></g></svg>